<svg width="199" height="200" viewBox="0 0 199 200" fill="none" xmlns="http://www.w3.org/2000/svg">
<path d="M195.57 68.5667L180.235 53.2325C176.595 49.5926 170.71 49.5926 167.108 53.2325L74.3672 145.974L31.23 102.798C27.59 99.1578 21.7041 99.1578 18.1029 102.798L2.72996 118.171C-0.909986 121.811 -0.909986 127.696 2.72996 131.336L67.7843 196.43C71.4243 200.069 77.3101 200.069 80.9113 196.43L195.531 81.7325C199.171 78.0538 199.171 72.168 195.57 68.5667ZM69.9915 109.613C72.3923 112.052 76.342 112.052 78.7429 109.613L159.286 28.992C161.687 26.5525 161.687 22.6415 159.286 20.2407L141.784 2.69922C139.383 0.259683 135.433 0.259683 133.032 2.69922L74.3672 61.3643L52.9147 39.8731C50.5139 37.4336 46.5642 37.4336 44.1634 39.8731L26.6219 57.4146C24.2211 59.8541 24.2211 63.7651 26.6219 66.1659L69.9915 109.613Z" fill="black"/>
</svg>
